<?xml version="1.0" standalone="no"?>
<!DOCTYPE svg PUBLIC "-//W3C//DTD SVG 20010904//EN"
 "http://www.w3.org/TR/2001/REC-SVG-20010904/DTD/svg10.dtd">
<svg version="1.0" xmlns="http://www.w3.org/2000/svg"
 width="1280.000000pt" height="1280.000000pt" viewBox="0 0 1280.000000 1280.000000"
 preserveAspectRatio="xMidYMid meet">

<g transform="translate(0.000000,1280.000000) scale(0.100000,-0.100000)"
fill="#000000" stroke="none">
<path d="M6295 7994 c-127 -17 -339 -64 -353 -79 -2 -1 47 -3 109 -4 601 -6
1144 -412 1327 -991 37 -119 51 -187 60 -292 l7 -83 209 -3 208 -2 -6 97 c-16
222 -60 390 -148 568 -200 400 -561 677 -998 767 -91 18 -344 32 -415 22z"/>
<path d="M5880 7861 c-142 -18 -409 -209 -567 -406 -151 -189 -276 -469 -298
-671 l-6 -59 26 73 c66 189 176 348 326 468 184 149 385 218 689 237 30 2 93
14 140 27 69 19 111 23 225 24 81 0 165 -5 199 -13 216 -48 407 -156 547 -310
l61 -66 -31 50 c-84 139 -249 310 -393 408 -154 104 -364 191 -540 221 -104
18 -301 27 -378 17z"/>
<path d="M5790 7414 c-8 -3 -44 -14 -80 -26 -336 -107 -606 -419 -655 -758 -4
-25 -9 -53 -11 -62 -5 -17 8 -18 170 -18 161 0 176 2 176 18 0 9 7 65 15 123
22 166 75 305 172 450 42 63 185 211 248 257 l30 21 -25 0 c-14 0 -32 -3 -40
-5z"/>
<path d="M2997 6234 c-15 -8 -32 -26 -37 -40 -6 -15 -10 -230 -10 -520 0 -522
2 -541 45 -558 26 -10 84 -7 107 5 41 22 48 65 48 286 0 114 5 225 11 246 24
89 126 149 211 126 89 -24 99 -57 107 -377 6 -251 6 -254 30 -273 35 -29 102
-26 134 7 35 35 40 88 35 368 l-4 233 -30 59 c-51 104 -140 151 -264 141 -82
-7 -130 -27 -186 -79 l-44 -41 0 167 c0 187 -9 225 -59 250 -37 20 -58 20 -94
0z"/>
<path d="M5505 6211 c-43 -18 -50 -39 -55 -165 l-5 -121 -45 -7 c-50 -9 -70
-28 -70 -68 0 -41 22 -63 71 -69 l44 -6 5 -275 c5 -265 6 -276 28 -312 14 -22
41 -45 68 -58 39 -19 58 -22 147 -18 80 2 110 8 137 24 45 26 60 72 36 109
-16 25 -20 26 -101 23 -59 -2 -88 1 -97 10 -10 10 -14 73 -16 257 l-3 245 45
0 c49 0 96 15 108 33 14 22 8 67 -12 87 -16 16 -33 20 -80 20 l-60 0 0 83 c-1
104 -13 164 -37 188 -22 23 -79 33 -108 20z"/>
<path d="M4060 5930 c-185 -38 -301 -188 -303 -395 -2 -113 15 -179 63 -255
46 -70 110 -119 197 -150 54 -19 79 -22 166 -18 91 3 110 7 168 35 152 75 229
223 216 413 -16 231 -178 383 -407 379 -36 -1 -81 -5 -100 -9z m185 -159 c49
-22 68 -43 97 -106 18 -40 22 -68 22 -140 0 -146 -52 -234 -152 -260 -110 -29
-205 28 -238 141 -34 118 -7 272 59 335 52 50 141 63 212 30z"/>
<path d="M4827 5930 c-123 -32 -207 -126 -207 -235 0 -52 40 -117 94 -153 27
-18 93 -45 150 -62 186 -56 205 -63 228 -87 25 -27 30 -82 8 -108 -43 -52
-154 -64 -234 -26 -34 17 -58 39 -86 81 -43 63 -74 79 -118 58 -72 -35 -65
-120 18 -200 65 -63 145 -88 279 -88 143 0 226 27 288 92 86 89 86 235 0 310
-37 32 -137 74 -247 103 -162 42 -200 69 -188 131 6 34 66 64 125 64 67 0 84
-8 156 -78 51 -51 62 -57 97 -56 52 2 80 27 80 71 0 70 -52 127 -152 165 -61
23 -229 33 -291 18z"/>
<path d="M6233 5925 c-157 -44 -243 -181 -243 -386 0 -195 89 -350 229 -397
19 -7 69 -12 113 -12 92 0 151 23 210 82 21 21 40 38 43 38 9 0 5 -92 -6 -159
-18 -104 -81 -151 -199 -151 -78 0 -118 17 -173 75 -61 64 -93 79 -137 64 -37
-13 -50 -36 -50 -86 0 -79 112 -161 250 -184 80 -13 237 -5 307 16 111 33 182
122 203 255 12 81 13 731 0 785 -11 49 -41 75 -86 75 -50 0 -85 -35 -91 -92
l-6 -47 -41 42 c-80 82 -208 115 -323 82z m232 -154 c80 -36 125 -124 125
-246 0 -81 -24 -149 -70 -195 -97 -97 -257 -62 -307 68 -22 57 -24 198 -4 255
16 48 66 106 106 123 42 19 103 17 150 -5z"/>
<path d="M6933 5916 l-28 -24 0 -367 0 -367 28 -24 c30 -26 83 -32 118 -14 42
23 49 59 49 241 0 263 24 360 98 395 30 14 42 15 91 4 103 -23 114 -23 138 0
31 28 39 68 22 99 -30 53 -137 91 -216 76 -28 -5 -52 -21 -89 -60 l-52 -54 -6
39 c-12 74 -96 105 -153 56z"/>
<path d="M7677 5921 c-110 -36 -185 -108 -229 -219 -30 -78 -33 -271 -4 -347
62 -162 192 -245 386 -245 148 0 268 51 327 139 26 39 31 102 9 120 -26 22
-73 16 -111 -15 -20 -16 -54 -43 -76 -61 -99 -80 -239 -68 -308 27 -17 23 -33
59 -37 79 -3 20 -8 44 -10 53 -4 15 17 17 238 20 281 4 307 10 328 73 26 78
-15 208 -91 286 -72 74 -140 101 -264 105 -79 3 -112 0 -158 -15z m241 -150
c38 -27 69 -82 78 -140 l7 -41 -187 0 -186 0 0 30 c0 35 33 111 58 133 59 54
168 62 230 18z"/>
<path d="M8543 5930 c-110 -26 -215 -116 -254 -218 -42 -111 -41 -288 4 -385
66 -146 191 -217 379 -217 149 0 283 61 328 150 32 64 26 101 -22 119 -31 12
-59 -2 -145 -72 -67 -55 -117 -71 -192 -64 -89 9 -160 84 -176 185 l-7 42 210
0 c245 0 307 8 341 47 21 24 23 34 19 102 -6 92 -36 156 -100 217 -56 53 -83
69 -148 88 -56 17 -180 20 -237 6z m174 -141 c62 -23 100 -77 118 -166 l7 -33
-191 0 c-105 0 -191 4 -191 8 0 5 7 31 15 60 18 60 56 109 100 128 37 16 104
18 142 3z"/>
<path d="M9163 5925 c-12 -9 -27 -32 -33 -53 -11 -40 -14 -611 -4 -674 4 -21
18 -49 32 -63 48 -48 143 -25 156 38 3 12 7 117 10 232 3 116 10 227 16 247
41 141 229 181 290 62 12 -23 16 -85 20 -285 5 -266 6 -270 50 -306 8 -7 34
-13 57 -13 34 0 46 5 67 31 l26 31 0 276 c0 160 -4 293 -10 314 -16 56 -69
118 -125 147 -42 22 -63 26 -135 26 -99 0 -158 -23 -222 -87 -21 -21 -40 -38
-42 -38 -2 0 -6 19 -9 42 -10 75 -87 113 -144 73z"/>
</g>
</svg>
